<?xml version="1.0" encoding="UTF-8"?><svg id="Layer_1" xmlns="http://www.w3.org/2000/svg" viewBox="0 0 172.2 166.8"><defs><style>.cls-1{fill:#25841e;}</style></defs><path class="cls-1" d="M36.2,22.4c-1.7,6.4-3.8,12.9-6.6,19.2h27.6l6.5-8.1s7.3,5.4,11.7,9.1c-.3.9-1.3,1.4-2.5,1.4h-19.5v30.5h8.1l6.9-8.6s7.7,5.7,12.4,9.6c-.3.9-1.3,1.4-2.6,1.4H16.2l-.7-2.4h24.8v-30.5h-12c-5.9,12.2-14.5,23.5-27.6,31.8l-.9-.7c13.1-14.3,19.9-34,23.3-52.7H2.4l-.7-2.4h22c1.2-7,1.9-13.7,2.3-20l17.3,2.3c-.3,1.1-.9,2-3.3,2.3-.9,4.9-1.8,10.1-3.1,15.4h25.1l6.9-8.8s7.7,5.9,12.4,9.8c-.3.9-1.2,1.4-2.5,1.4h-42.5Z"/><path class="cls-1" d="M157,11.4s4.5,3.6,7.4,6c-.3.9-1.1,1.4-2.3,1.4h-33.8v15.3h20.9l3.8-4.8s4.5,3.6,7.3,6c-.3.9-1.1,1.4-2.2,1.4h-63.9l-.8-2.6h30.1v-15.3h-34.4l-.8-2.6h35.1V1.7l7.8.9c-.2,1.1-1.1,2-3.1,2.3v11.3h24.7l4-4.8ZM148.9,45.1l6.3,4.8c-.5.7-2,1.4-3.6,1.6v25.3c0,.6-2.5,1.8-4.1,1.8h-.6v-5.2h-41v4.3c0,.4-1.9,1.5-3.7,1.5h-.9v-33.5l5.1,2.5h39.6l2.8-3.1ZM146.9,70.8v-20.2h-41v20.2h41Z"/><path class="cls-1" d="M77.9,97.4s4.5,3.6,7.4,6c-.3.9-1.1,1.4-2.3,1.4h-33.8v15.3h20.9l3.8-4.8s4.5,3.6,7.3,6c-.3.9-1.1,1.4-2.2,1.4H15.3l-.8-2.6h30.1v-15.3H10.3l-.8-2.6h35.1v-14.5l7.8.9c-.2,1.1-1.1,2-3.1,2.3v11.3h24.7l4-4.8ZM69.9,131.1l6.3,4.8c-.5.7-2,1.4-3.6,1.6v25.3c0,.6-2.5,1.8-4.1,1.8h-.6v-5.2H26.9v4.3c0,.4-1.9,1.5-3.7,1.5h-.9v-33.5l5.1,2.5h39.6l2.8-3.1ZM67.9,156.9v-20.2H26.9v20.2h41Z"/><path class="cls-1" d="M159.7,97.7s7.8,5.9,12.5,9.8c-.3.9-1.3,1.4-2.6,1.4h-42c-2.7,6.1-6.1,12.2-10.5,17.8l7,2.6h25.7l6-6.6,10.6,8.2c-.6.8-1.4,1.4-3.4,1.8v31.3c0,.6-3.9,2.7-10.5,2.7h-2.3v-7.5h-27v5.1c0,.8-3.7,2.7-9.9,2.7h-2.2v-33.3c-5.2,5.1-11.4,9.6-18.9,13.3l-.8-.8c11.6-9.8,19-23.5,23.6-37.2h-22.5l-.7-2.4h24c2.1-7,3.6-13.9,4.5-20.4l16.6,4.2c-.3,1-1,1.8-3.3,2-1.4,4.7-2.9,9.4-4.9,14.3h24.2l6.9-8.8ZM123.3,131.5v25.1h27v-25.1h-27Z"/></svg>